<svg width="160" height="160" viewBox="0 0 160 160" fill="none" xmlns="http://www.w3.org/2000/svg">
<path d="M80 160C124.183 160 160 124.183 160 80C160 35.8172 124.183 0 80 0C35.8172 0 0 35.8172 0 80C0 124.183 35.8172 160 80 160Z" fill="#D2E5F9"/>
<path d="M30.6526 37.3447H33.1339C33.356 38.5539 33.6734 39.7307 34.0755 40.8656L31.9282 42.1054L36.1267 49.3771L38.2793 48.1347C39.0688 49.0597 39.93 49.9209 40.855 50.7104L39.6126 52.863L46.8843 57.0615L48.1241 54.9141C49.2598 55.3172 50.4358 55.6337 51.6449 55.8558V58.3371H60.0419V55.8558C61.2511 55.6337 62.4279 55.3163 63.5628 54.9141L64.8025 57.0615L72.0742 52.863L70.8318 50.7104C71.756 49.9209 72.618 49.0597 73.4076 48.1347L75.5601 49.3771L79.7586 42.1045L77.6113 40.8647C78.0143 39.729 78.3308 38.553 78.5529 37.3438H81.0342V28.9469H78.5529C78.3308 27.7377 78.0135 26.5609 77.6113 25.426L79.7586 24.1863L75.5601 16.9146L73.4076 18.157C72.618 17.2319 71.7569 16.3707 70.8318 15.5812L72.0742 13.4287L64.8025 9.23019L63.5628 11.3775C62.427 10.9745 61.2511 10.6579 60.0419 10.4359V7.95456H51.6449V10.4359C50.4358 10.6579 49.2589 10.9753 48.1241 11.3775L46.8843 9.23019L39.6126 13.4287L40.855 15.5812C39.9308 16.3707 39.0688 17.2319 38.2793 18.157L36.1267 16.9146L31.9282 24.1871L34.0755 25.4269C33.6725 26.5626 33.356 27.7386 33.1339 28.9478H30.6526V37.3447ZM64.0165 13.5476C69.2738 15.5349 73.4548 19.715 75.4421 24.9731C82.1953 42.8363 65.5343 59.4973 47.6712 52.7449C42.4139 50.7576 38.2329 46.5775 36.2456 41.3202C29.4924 23.4562 46.1534 6.79521 64.0165 13.5476Z" fill="#6AADE1"/>
<path d="M146.824 32.3244H143.407C143.101 30.6588 142.665 29.0387 142.111 27.4745L145.067 25.767L139.286 15.7517L136.322 17.4627C135.234 16.1897 134.048 15.0033 132.775 13.9156L134.486 10.9517L124.47 5.16983L122.763 8.12677C121.199 7.57246 119.578 7.1353 117.913 6.82929V3.41333H106.348V6.83016C104.683 7.13617 103.063 7.57246 101.498 8.12765L99.7909 5.17071L89.7756 10.9526L91.4867 13.9165C90.2137 15.0041 89.0272 16.1906 87.9396 17.4636L84.9756 15.7526L79.1938 25.7679L82.1507 27.4754C81.5964 29.0396 81.1592 30.6597 80.8532 32.3252H77.4364V43.8898H80.8532C81.1592 45.5554 81.5955 47.1755 82.1507 48.7397L79.1938 50.4472L84.9756 60.4625L87.9396 58.7515C89.0272 60.0245 90.2137 61.2109 91.4867 62.2986L89.7756 65.2625L99.7909 71.0444L101.498 68.0874C103.063 68.6417 104.683 69.0789 106.348 69.3849V72.8017H117.913V69.3849C119.578 69.0789 121.199 68.6426 122.763 68.0874L124.47 71.0444L134.486 65.2625L132.775 62.2986C134.048 61.2109 135.234 60.0245 136.322 58.7515L139.286 60.4625L145.067 50.4472L142.111 48.7397C142.665 47.1755 143.102 45.5554 143.407 43.8898H146.824V32.3244ZM139.12 49.3631C136.383 56.6033 130.625 62.3607 123.385 65.0973C98.7846 74.3974 75.839 51.4518 85.1391 26.8503C87.8766 19.6101 93.634 13.8527 100.874 11.1152C125.477 1.81595 148.421 24.7615 139.12 49.3631Z" fill="white"/>
<path d="M146.824 43.9762C146.776 43.9762 146.737 43.9369 146.737 43.8888V32.4116H143.407C143.365 32.4116 143.328 32.3819 143.321 32.34C143.021 30.7032 142.585 29.0761 142.028 27.5041C142.014 27.4648 142.03 27.4202 142.067 27.3992L144.949 25.7354L139.254 15.8713L136.366 17.5386C136.33 17.5596 136.283 17.5518 136.256 17.5194C135.175 16.2534 133.985 15.0634 132.719 13.9819C132.686 13.9548 132.678 13.9085 132.699 13.8718L134.367 10.9839L124.502 5.28946L122.838 8.17121C122.817 8.20793 122.772 8.22367 122.733 8.20968C121.161 7.65187 119.534 7.21646 117.897 6.91656C117.856 6.9087 117.825 6.87285 117.825 6.83088V3.50061H109.152C109.104 3.50061 109.065 3.46126 109.065 3.41318C109.065 3.36509 109.104 3.32574 109.152 3.32574H117.913C117.961 3.32574 118 3.36509 118 3.41318V6.75744C119.599 7.05471 121.186 7.47962 122.723 8.02083L124.394 5.12684C124.406 5.10673 124.425 5.09186 124.448 5.08574C124.469 5.07962 124.494 5.08312 124.514 5.09449L134.529 10.8763C134.571 10.9008 134.585 10.9542 134.562 10.9961L132.886 13.8971C134.12 14.9559 135.282 16.1179 136.341 17.3515L139.242 15.6763C139.262 15.665 139.286 15.6615 139.308 15.6676C139.331 15.6737 139.349 15.6886 139.362 15.7087L145.143 25.724C145.155 25.7441 145.158 25.7677 145.152 25.7904C145.146 25.8132 145.131 25.8315 145.111 25.8438L142.217 27.5146C142.758 29.0516 143.183 30.6394 143.481 32.2377H146.825C146.873 32.2377 146.912 32.277 146.912 32.3251V43.8897C146.911 43.9369 146.872 43.9762 146.824 43.9762Z" fill="#227EE0"/>
<path d="M138.171 38.1062C138.171 45.0316 135.468 51.3258 131.058 55.9903C126.312 61.0133 119.587 64.1477 112.13 64.1477C107.047 64.1477 102.304 62.6902 98.2952 60.1704C90.964 55.5645 86.0906 47.4054 86.0906 38.107C86.0906 23.7245 97.7496 12.0673 112.13 12.0673C126.512 12.0664 138.171 23.7237 138.171 38.1062Z" fill="#227EE0"/>
<path d="M131.058 55.9904C126.311 61.0133 119.586 64.1477 112.13 64.1477C107.046 64.1477 102.303 62.6903 98.2943 60.1705L100.431 50.9727H129.821L131.058 55.9904Z" fill="#363E44"/>
<path d="M85.7305 28.6352L102.097 27.7608L101.476 16.8301L85.7305 19.349V28.6352Z" fill="#84524D"/>
<path d="M90.958 23.7451C90.958 23.7451 79.8262 11.0509 78.3862 9.48933C78.2358 9.32583 77.9709 9.03556 77.5372 8.76627C75.9311 7.7678 74.5838 8.64998 72.4163 8.3702C69.9569 8.05282 68.7512 6.48255 68.2843 6.91009C67.9599 7.20736 68.2476 7.9278 69.3221 9.06441C68.4067 8.29501 67.1189 7.30616 66.6948 7.81326C66.2367 8.42441 67.6128 9.76474 68.4845 10.5341C67.4292 9.60211 66.589 9.42288 66.4229 9.76386C66.1615 10.3016 66.812 11.2144 68.2546 12.3921C67.0314 11.857 66.6546 11.9103 66.5811 12.2478C66.4483 12.8642 67.6522 13.8102 68.8456 14.4826C70.1886 15.2397 71.4931 15.3621 72.3175 15.4189H72.3184C76.3315 20.9324 76.5265 20.685 79.6338 25.234C82.5864 29.5566 89.5687 30.4694 90.958 23.7451Z" fill="#84524D"/>
<path d="M74.3451 9.08978C72.8247 7.16454 72.6848 6.14858 72.9969 5.91689C73.5232 5.52782 75.4948 6.64082 78.0714 9.17459C77.031 9.24454 75.3855 9.02071 74.3451 9.08978Z" fill="#84524D"/>
<path d="M75.465 13.1073C75.4387 13.1073 75.4134 13.0959 75.3959 13.0741C75.1336 12.741 74.6711 12.2942 73.9576 12.0573C72.9478 11.7215 72.0639 12.0284 71.7307 12.1753C71.6862 12.1945 71.6354 12.1744 71.6153 12.1307C71.5961 12.087 71.6162 12.0345 71.6599 12.0153C72.0114 11.8597 72.9452 11.5362 74.0127 11.8911C74.7672 12.1421 75.256 12.6142 75.5331 12.9657C75.5629 13.0033 75.5568 13.0584 75.5183 13.0881C75.5025 13.1012 75.4833 13.1073 75.465 13.1073Z" fill="#363E44"/>
<path d="M73.8536 8.5879C73.8072 8.5879 73.7687 8.55205 73.7661 8.50484C73.7635 8.45675 73.8002 8.41566 73.8492 8.41304C74.1412 8.3973 74.4201 8.3702 74.6894 8.34484C75.2673 8.28888 75.8138 8.23642 76.355 8.31424C76.4031 8.32123 76.4363 8.36582 76.4293 8.41304C76.4223 8.46112 76.3795 8.49435 76.3305 8.48735C75.8103 8.41216 75.2743 8.46462 74.7069 8.51883C74.4359 8.54506 74.1552 8.57216 73.8597 8.5879C73.8571 8.5879 73.8553 8.5879 73.8536 8.5879Z" fill="#363E44"/>
<path d="M71.4002 9.97016C71.3949 9.97016 71.3906 9.97016 71.3853 9.96928C71.0854 9.91857 70.789 9.83901 70.5049 9.73409C70.0922 9.58196 69.7005 9.37475 69.3403 9.1177C69.3009 9.08972 69.2922 9.03464 69.3202 8.99617C69.3482 8.95682 69.4032 8.94808 69.4417 8.97606C69.7897 9.22437 70.1674 9.42458 70.5652 9.5706C70.8397 9.67202 71.1248 9.74808 71.4142 9.79704C71.4614 9.80491 71.4937 9.85038 71.4859 9.89759C71.4789 9.93956 71.4421 9.97016 71.4002 9.97016Z" fill="#363E44"/>
<path d="M70.4307 11.3141C70.4254 11.3141 70.4211 11.3141 70.4158 11.3132C70.1159 11.2625 69.8195 11.1829 69.5354 11.078C69.1227 10.9259 68.731 10.7187 68.3708 10.4616C68.3315 10.4336 68.3227 10.3785 68.3507 10.3401C68.3787 10.3007 68.4338 10.292 68.4722 10.32C68.8193 10.5683 69.1979 10.7685 69.5957 10.9145C69.8703 11.0159 70.1553 11.092 70.4447 11.1409C70.4919 11.1488 70.5242 11.1943 70.5164 11.2415C70.5094 11.2835 70.4727 11.3141 70.4307 11.3141Z" fill="#363E44"/>
<path d="M70.3003 13.3258C70.2951 13.3258 70.2907 13.3258 70.2855 13.3249C69.9856 13.2742 69.6892 13.1946 69.405 13.0897C68.9923 12.9376 68.6006 12.7304 68.2404 12.4733C68.2011 12.4453 68.1923 12.3903 68.2203 12.3518C68.2483 12.3124 68.3034 12.3037 68.3418 12.3317C68.6898 12.58 69.0675 12.7802 69.4653 12.9262C69.7399 13.0276 70.0258 13.1037 70.3143 13.1527C70.3615 13.1605 70.3939 13.206 70.386 13.2532C70.379 13.2952 70.3423 13.3258 70.3003 13.3258Z" fill="#363E44"/>
<path d="M127.21 31.7773C127.21 31.7773 130.865 14.7036 117.198 15.3829C110.607 15.7099 100.865 16.0299 90.0339 18.499L93.0127 29.1534H94.9712L99.6182 54.0688H131.444L127.21 31.7773Z" fill="white"/>
<path d="M113.293 26.7431C113.286 26.7431 113.277 26.7422 113.268 26.7396C113.222 26.7256 113.195 26.6767 113.209 26.6303L115.284 19.7057C115.298 19.6594 115.347 19.6332 115.394 19.6472C115.44 19.6612 115.466 19.7101 115.452 19.7565L113.377 26.681C113.366 26.7186 113.332 26.7431 113.293 26.7431Z" fill="#363E44"/>
<path d="M73.4008 50.2471C73.9683 51.4598 75.1862 52.2344 76.5248 52.2344H98.0207L88.3936 31.6591H64.7031L73.4008 50.2471Z" fill="#363E44"/>
<path d="M112.131 50.1684C112.131 51.3146 111.201 52.244 110.055 52.244H90.2343L89.2629 50.1684H112.131Z" fill="#363E44"/>
<path d="M125.108 32.7703C122.648 37.8719 117.705 51.4693 111.367 48.7983C106.125 46.5889 111.557 33.6534 113.672 28.4293C117.483 29.8763 121.295 31.3233 125.108 32.7703Z" fill="#84524D"/>
<path d="M114.391 38.5094C114.39 38.5094 114.39 38.5094 114.391 38.5094C104.365 40.8351 97.2086 42.2926 95.0166 42.8294C94.7867 42.8854 94.3819 42.9833 93.9089 43.2474C92.1559 44.2275 92.2853 45.9333 90.9126 47.8043C89.3554 49.928 87.2754 50.2428 87.4337 50.8959C87.5439 51.3505 88.3622 51.4528 89.971 51.0366C88.7854 51.493 87.2037 52.182 87.4582 52.8369C87.7922 53.5765 89.7445 52.9846 90.9091 52.5693C89.5006 53.0721 88.9017 53.761 89.1342 54.0906C89.5006 54.6091 90.6835 54.4736 92.5196 53.7365C91.3943 54.5995 91.2501 54.9763 91.5264 55.2176C92.0317 55.6574 93.5294 55.0235 94.7683 54.2594C96.162 53.3999 96.9454 52.2493 97.421 51.5123C97.421 51.5123 97.421 51.5123 97.4219 51.5123C104.612 50.6108 106.37 50.4832 112.16 49.629C118.739 48.6585 119.539 40.822 114.391 38.5094Z" fill="#84524D"/>
<path d="M92.5714 46.3816C90.0001 46.8074 88.9824 46.4157 88.9273 46.0065C88.8355 45.3176 90.8823 44.0559 94.5623 42.9613C94.0927 43.9641 93.0401 45.3788 92.5714 46.3816Z" fill="#84524D"/>
<path d="M89.9886 51.0514C89.9563 51.0514 89.9248 51.0331 89.9099 51.0016C89.8889 50.9579 89.9073 50.9054 89.951 50.8853C90.3611 50.6895 90.7414 50.4403 91.0824 50.1456C91.3176 49.9428 91.5353 49.7155 91.7294 49.4716C91.7591 49.434 91.8142 49.4278 91.8527 49.4576C91.8903 49.4873 91.8964 49.5424 91.8666 49.5808C91.6656 49.8335 91.44 50.0678 91.1969 50.2777C90.8437 50.5828 90.4503 50.8399 90.0262 51.0427C90.014 51.0488 90.0009 51.0514 89.9886 51.0514Z" fill="#363E44"/>
<path d="M90.7415 52.6426C90.7092 52.6426 90.6777 52.6242 90.6629 52.5928C90.6419 52.549 90.6602 52.4966 90.704 52.4765C91.1131 52.2806 91.4943 52.0315 91.8353 51.7368C92.0705 51.534 92.2882 51.3066 92.4823 51.0627C92.5129 51.0251 92.5671 51.019 92.6056 51.0487C92.6432 51.0784 92.6493 51.1335 92.6196 51.172C92.4185 51.4247 92.1929 51.659 91.9499 51.8688C91.5966 52.174 91.2032 52.431 90.78 52.6339C90.7669 52.6391 90.7547 52.6426 90.7415 52.6426Z" fill="#363E44"/>
<path d="M92.5461 53.7959C92.5138 53.7959 92.4823 53.7776 92.4674 53.7461C92.4464 53.7024 92.4648 53.6499 92.5085 53.6298C92.9177 53.434 93.2989 53.1848 93.6399 52.8901C93.8751 52.6864 94.0928 52.46 94.2869 52.216C94.3166 52.1784 94.3717 52.1723 94.4102 52.202C94.4478 52.2318 94.4539 52.2868 94.4241 52.3253C94.223 52.5771 93.9975 52.8123 93.7544 53.0222C93.4012 53.3273 93.0078 53.5843 92.5846 53.7872C92.5723 53.7933 92.5592 53.7959 92.5461 53.7959Z" fill="#363E44"/>
<path d="M104.292 16.5737H111.197L107.745 20.1672L104.292 16.5737Z" fill="#363E44"/>
<path d="M108.392 18.5559H107.745H107.098L105.669 36.6848L107.745 38.7858L109.82 36.6848L108.392 18.5559Z" fill="#363E44"/>
<path d="M104.323 16.5736H111.196L104.91 6.52596C104.35 5.51263 102.612 7.00771 101.599 7.56814C100.585 8.12771 100.218 9.40334 100.777 10.4167L104.323 16.5736Z" fill="#84524D"/>
<path d="M101.678 16.5228C103.359 16.7965 105.296 12.3619 105.296 12.3619L105.648 7.46315C104.592 5.31233 101.992 4.4249 99.8401 5.4802C97.6884 6.5355 96.8001 9.13485 97.8562 11.2848C97.8571 11.2857 99.9651 16.2439 101.678 16.5228Z" fill="#84524D"/>
<path d="M98.8074 12.0901C98.8074 12.0901 98.2767 13.7706 98.4831 14.0442C98.7296 14.3703 100.055 13.9935 100.055 13.9935C100.055 13.9935 98.7795 12.1067 98.8074 12.0901Z" fill="#84524D"/>
<path d="M101.631 9.56512C101.631 9.56512 100.918 9.67704 100.309 10.1404C100.179 10.2392 101.213 11.0899 101.291 10.9378C101.636 10.2681 101.631 9.56512 101.631 9.56512Z" fill="white"/>
<mask id="mask0_4077_80901" style="mask-type:luminance" maskUnits="userSpaceOnUse" x="99" y="9" width="3" height="4">
<path d="M101.631 9.56506C101.631 9.56506 100.583 9.73031 99.9423 10.4857C99.3015 11.2411 99.3093 12.3008 99.3093 12.3008C99.3093 12.3008 100.357 12.1356 100.998 11.3801C101.639 10.6247 101.631 9.56506 101.631 9.56506Z" fill="white"/>
</mask>
<g mask="url(#mask0_4077_80901)">
<path d="M100.262 10.1334C99.5533 10.0372 98.8993 10.533 98.8031 11.242C98.7061 11.9511 99.2035 12.6042 99.9126 12.7004C100.622 12.7966 101.276 12.3008 101.372 11.5918C101.469 10.8827 100.972 10.2296 100.262 10.1334Z" fill="#363E44"/>
</g>
<path d="M104.089 2.93509C104.089 2.93509 107.968 6.13859 106.037 9.0999L104.977 8.89793L103.712 10.5574L103.239 8.17312C102.971 7.30143 101.973 6.89225 101.17 7.32591L97.6657 9.21793L96.7634 7.28656C98.373 4.62427 100.696 3.00066 104.089 2.93509Z" fill="#363E44"/>
<path d="M99.8855 4.43554C100.328 4.32363 100.596 3.87335 100.483 3.43095C100.371 2.98854 99.8619 2.48931 99.4195 2.60122C98.9762 2.71401 98.7672 3.3951 98.88 3.83751C98.9928 4.28078 99.4431 4.54833 99.8855 4.43554Z" fill="#363E44"/>
<path d="M99.4432 4.92869C99.7754 4.61569 99.7912 4.09197 99.4773 3.75973C99.1643 3.42749 98.4762 3.23776 98.1439 3.55164C97.8117 3.86465 97.9603 4.56235 98.2733 4.89459C98.5872 5.22684 99.1109 5.24257 99.4432 4.92869Z" fill="#363E44"/>
<path d="M98.5031 5.99694C98.873 5.50033 98.7698 4.79825 98.2723 4.42929C97.7757 4.06033 96.8131 3.9694 96.4432 4.46601C96.0734 4.96262 96.4371 5.85792 96.9337 6.22776C97.4303 6.59672 98.1333 6.49355 98.5031 5.99694Z" fill="#363E44"/>
<path d="M101.09 3.91352C101.536 3.81559 101.819 3.37406 101.721 2.92816C101.623 2.48226 101.13 1.96641 100.684 2.06434C100.238 2.16226 100.006 2.83723 100.105 3.28313C100.203 3.72991 100.643 4.01144 101.09 3.91352Z" fill="#363E44"/>
<path d="M97.6849 6.65721C97.6534 6.10726 97.1813 5.68759 96.6314 5.71907C96.0814 5.75054 95.3732 6.23929 95.4047 6.78923C95.4362 7.33918 96.1968 7.74224 96.7468 7.71076C97.2967 7.67841 97.7164 7.20716 97.6849 6.65721Z" fill="#363E44"/>
<path d="M102.154 3.70185C102.723 3.68437 103.169 3.20874 103.151 2.63956C103.134 2.07125 102.648 1.32633 102.079 1.34469C101.51 1.36218 101.073 2.13595 101.09 2.70426C101.109 3.27344 101.584 3.71934 102.154 3.70185Z" fill="#363E44"/>
<path d="M103.134 3.36269C103.538 3.54718 104.016 3.36881 104.2 2.96488C104.385 2.56095 104.302 1.87198 103.899 1.68838C103.495 1.5039 102.92 1.89384 102.737 2.29778C102.552 2.70171 102.73 3.17821 103.134 3.36269Z" fill="#363E44"/>
<path d="M98.0346 7.87512C97.7872 7.25086 97.0799 6.94484 96.4556 7.19228C95.8305 7.43971 95.1983 8.27555 95.4449 8.89982C95.6923 9.52408 96.7266 9.70069 97.3509 9.45326C97.976 9.20583 98.2821 8.49938 98.0346 7.87512Z" fill="#363E44"/>
<path d="M106.411 7.10818C107.037 7.64851 107.106 8.59277 106.565 9.21791C106.025 9.84304 105.08 9.91212 104.454 9.37179C103.828 8.83146 103.759 7.8872 104.3 7.26206C104.841 6.63692 105.786 6.56785 106.411 7.10818Z" fill="#84524D"/>
<path d="M99.332 14.1448L101.341 17.1839C101.621 17.6071 102.196 17.7112 102.607 17.4139C102.71 17.3387 102.821 17.2574 102.939 17.1682C104.961 15.6294 106.045 13.1551 105.802 10.6266C105.721 9.77935 105.124 9.07028 104.303 8.8447L104.033 8.77039L103.576 9.43836C103.576 9.43836 103.992 11.4379 103.398 11.9039C102.804 12.3691 101.31 12.4591 99.332 14.1448Z" fill="#363E44"/>
<path d="M101.08 14.3442C101.054 14.3442 101.027 14.3424 100.999 14.3398C100.951 14.3346 100.917 14.2909 100.923 14.2428C100.928 14.1947 100.971 14.1606 101.02 14.1658C101.224 14.1894 101.424 14.0915 101.528 13.9167C101.629 13.7479 101.625 13.5311 101.517 13.365C101.491 13.3247 101.502 13.2705 101.543 13.2443C101.584 13.2181 101.638 13.2294 101.664 13.2705C101.807 13.4926 101.813 13.7811 101.679 14.0067C101.553 14.2174 101.324 14.3442 101.08 14.3442Z" fill="#84524D"/>
<path d="M102.179 7.0313C102.167 7.0313 102.154 7.02868 102.143 7.02343C102.099 7.00333 102.079 6.95174 102.099 6.90802L103.003 4.90759C103.023 4.86387 103.075 4.84376 103.119 4.86387C103.162 4.88398 103.183 4.93557 103.162 4.97928L102.258 6.97972C102.244 7.01207 102.212 7.0313 102.179 7.0313Z" fill="#84524D"/>
<path d="M3.00842 149.084H83.7306L83.7306 87.9001H3.00842L3.00842 149.084Z" fill="#6AADE1"/>
<path d="M81.1975 141.644L81.1975 90.4322L5.54025 90.4322L5.54025 141.644H81.1975Z" fill="white"/>
<path d="M43.9537 146.47C44.7291 146.148 45.0973 145.26 44.7761 144.484C44.4549 143.709 43.566 143.341 42.7906 143.662C42.0153 143.983 41.6471 144.872 41.9683 145.647C42.2894 146.423 43.1784 146.791 43.9537 146.47Z" fill="white"/>
<path d="M3.00781 150.743C3.00781 154.244 5.84672 157.083 9.34836 157.083H93.9604C97.462 157.083 100.301 154.244 100.301 150.743H3.00781Z" fill="#6AADE1"/>
<path d="M24.2555 156.513C21.4358 156.513 19.1416 154.219 19.1416 151.399C19.1416 151.351 19.1809 151.312 19.229 151.312C19.2771 151.312 19.3165 151.351 19.3165 151.399C19.3165 154.123 21.532 156.338 24.2555 156.338C24.3036 156.338 24.3429 156.378 24.3429 156.426C24.3429 156.474 24.3036 156.513 24.2555 156.513Z" fill="#E5F6FF"/>
<path d="M53.8441 152.241C53.8441 153.73 55.0507 154.936 56.5388 154.936H66.0242C67.5123 154.936 68.7189 153.73 68.7189 152.241H53.8441Z" fill="#E5F6FF"/>
<path d="M62.8231 141.403H24.9293V114.368H55.2052L62.8231 141.403Z" fill="#363E44"/>
<path d="M72.737 86.7488C71.5698 84.3471 69.0247 82.9333 66.3694 83.2069C44.6872 85.4435 30.7156 88.807 23.5864 90.8896C20.0419 91.9248 17.1532 94.5005 15.715 97.9007L12.8481 104.679C11.1659 108.657 14.0861 113.061 18.4044 113.061H22.1281L21.7722 118.08H57.941L52.1574 99.5742L67.6319 96.7921C72.2413 95.9641 74.7847 90.9613 72.737 86.7488Z" fill="#0361AB"/>
<path d="M23.2105 104.838C23.2044 104.838 23.1974 104.837 23.1913 104.836C23.144 104.825 23.1152 104.778 23.1257 104.731L24.0708 100.607C24.0813 100.559 24.1285 100.53 24.1757 100.541C24.223 100.552 24.2518 100.599 24.2413 100.646L23.2962 104.77C23.2866 104.811 23.2507 104.838 23.2105 104.838Z" fill="#363E44"/>
<path d="M51.9108 99.1693C51.8749 99.1693 51.8417 99.1474 51.8286 99.1116L50.3519 95.0958C50.3353 95.0504 50.3589 95.0005 50.4035 94.9839C50.4489 94.9673 50.4988 94.9909 50.5154 95.0355L51.9921 99.0512C52.0087 99.0967 51.9851 99.1465 51.9405 99.1631C51.9309 99.1675 51.9204 99.1693 51.9108 99.1693Z" fill="#363E44"/>
<path d="M26.741 90.0108C31.7438 88.5865 36.8262 87.1588 42.0144 86.6342L52.779 118.08H30.4192C30.4192 118.08 31.2726 111.404 26.741 90.0108Z" fill="#8EC5FF"/>
<path d="M61.5318 88.3776C61.5318 88.3776 63.5173 77.1575 64.612 72.6863C65.7617 67.9903 68.1433 61.2249 69.085 61.5702C69.6218 61.7669 69.488 62.7567 68.9538 65.3787C69.113 65.2729 69.676 65.0727 70.1438 65.3368C70.8362 65.7276 70.6736 66.3737 70.6867 66.4367C70.7383 66.3964 71.346 65.9698 71.8531 66.1534C72.4249 66.3597 72.6303 66.8327 72.6592 67.3092C72.7895 67.213 73.8614 66.5529 74.3405 66.7532C74.963 67.0137 74.6107 68.0996 74.4699 68.6382C74.212 69.627 73.4408 72.3112 73.2144 73.7835C72.7685 76.6793 73.2275 87.5366 70.8144 91.1921C66.5031 97.725 61.0395 91.3057 61.5318 88.3776Z" fill="#84524D"/>
<path d="M47.4344 137.616L45.7443 136.654C46.0783 135.715 46.3345 134.763 46.5155 133.805L48.4757 133.763L48.5334 127.007L46.5688 127.049C46.4018 126.09 46.1605 125.149 45.8475 124.233L47.5577 123.197L44.2886 117.417L42.5828 118.451C41.9708 117.728 41.2967 117.048 40.5614 116.422L41.5572 114.672L35.8366 111.418L34.8407 113.168C33.9279 112.856 32.9994 112.623 32.0639 112.468L32.0814 110.472L25.4427 110.615L25.4252 112.615C24.4783 112.813 23.5463 113.087 22.637 113.433L21.6691 111.723L15.8908 115.224L16.856 116.931C16.126 117.576 15.4379 118.283 14.8014 119.049L13.1113 118.088L9.74172 124.01L11.4318 124.972C11.0978 125.911 10.8416 126.863 10.6606 127.821L8.70041 127.863L8.6427 134.619L10.6073 134.577C10.7743 135.536 11.0156 136.477 11.3286 137.393L9.61844 138.429L12.8875 144.209L14.5933 143.175C15.2053 143.898 15.8794 144.578 16.6147 145.204L15.6189 146.954L21.3395 150.208L22.3354 148.458C23.2482 148.77 24.1767 149.003 25.1122 149.158L25.0947 151.154L31.7334 151.011L31.7509 149.011C32.6978 148.813 33.6298 148.539 34.5391 148.193L35.507 149.903L41.2853 146.402L40.3201 144.695C41.0501 144.05 41.7382 143.343 42.3747 142.576L44.0648 143.538L47.4344 137.616ZM37.4681 136.272C34.5225 141.097 28.3839 142.899 23.5507 140.357C18.2138 137.55 16.4547 130.682 19.7072 125.355C22.6528 120.53 28.7913 118.728 33.6246 121.27C38.9614 124.077 40.7205 130.944 37.4681 136.272Z" fill="#227EE0"/>
<path d="M28.1556 145.687C25.7547 145.687 23.3521 145.085 21.1733 143.845C17.8098 141.932 15.4194 138.777 14.4419 134.962C13.4653 131.149 14.017 127.132 15.9973 123.651C17.7836 120.512 20.6024 118.102 23.9353 116.864C27.2358 115.638 30.8214 115.635 34.0336 116.854C34.0791 116.872 34.1018 116.922 34.0843 116.967C34.0669 117.013 34.017 117.035 33.9716 117.018C27.4098 114.525 19.7482 117.414 16.1504 123.738C14.1928 127.178 13.6463 131.149 14.6124 134.919C15.5777 138.688 17.9392 141.804 21.2607 143.694C26.9272 146.918 34.1316 145.773 38.7803 140.91C38.8135 140.875 38.8686 140.874 38.9036 140.908C38.9386 140.941 38.9394 140.996 38.9062 141.031C35.9886 144.082 32.076 145.687 28.1556 145.687Z" fill="#4DABDE"/>
<path d="M45.3856 109.775C44.5296 109.071 41.4424 105.573 39.3371 106.115C37.2168 106.661 35.7952 108.619 35.1421 110.71C35.1456 110.717 35.15 110.726 35.1543 110.734C35.233 111.335 35.4429 112.222 36.0925 112.986C36.8339 113.857 37.4372 113.734 38.3622 114.531C39.9237 115.877 39.7086 117.597 40.4343 117.514C40.9318 117.456 41.1006 116.459 41.0184 115.51C40.9336 114.535 40.4684 113.94 40.6013 113.851C40.7473 113.753 41.1417 114.418 41.7082 115.2C41.9714 115.564 42.0798 117.006 42.7714 117.027C43.3231 117.045 43.5862 115.517 43.0791 114.263C42.7207 113.375 41.8962 112.948 42.0055 112.812C42.0877 112.71 42.5729 112.978 42.9218 113.332C43.4988 113.917 43.6247 115.392 44.2621 115.399C44.8864 115.406 45.0927 114.067 44.6992 112.884C44.3679 111.886 43.4254 111.454 43.5609 111.284C43.6562 111.164 44.1178 111.271 44.9764 111.77C45.6925 112.187 46.816 113.46 47.365 112.776C47.8258 112.202 46.677 110.837 45.3856 109.775Z" fill="#84524D"/>
<path d="M19.5418 102.553C17.5177 102.61 15.6747 103.781 14.8187 105.616C14.0117 107.344 13.8377 109.592 16.3977 111.647C21.495 115.738 37.022 111.358 37.022 111.358L40.4178 106.139C33.78 103.747 26.3116 102.363 19.5418 102.553Z" fill="#84524D"/>
<path d="M91.8487 83.2042L90.6072 82.2337C90.9857 81.5203 91.304 80.7867 91.5628 80.0409L93.1392 80.2385L93.9846 74.8291L92.4048 74.6307C92.3838 73.8429 92.3025 73.0595 92.1599 72.2884L93.6533 71.6597L91.7158 66.6403L90.226 67.2672C89.8211 66.6141 89.3613 65.9898 88.8454 65.4014L89.8509 64.1161L85.6498 60.8305L84.6443 62.1157C83.9492 61.7572 83.2323 61.4617 82.5014 61.2257L82.7505 59.6283L77.412 58.9577L77.1619 60.5585C76.3794 60.6058 75.5995 60.715 74.8301 60.8847L74.2566 59.3992L69.21 61.5229L69.7818 63.0049C69.1199 63.4359 68.4852 63.9212 67.8845 64.4606L66.643 63.4901L63.2419 67.8399L64.4834 68.8104C64.1049 69.5238 63.7866 70.2573 63.5278 71.0031L61.9514 70.8055L61.106 76.2149L62.6858 76.4134C62.7068 77.2012 62.7881 77.9846 62.9315 78.7548L61.4382 79.3835L63.3757 84.4038L64.8655 83.7769C65.2703 84.43 65.7302 85.0543 66.2461 85.6427L65.2406 86.9279L69.4417 90.2136L70.4472 88.9284C71.1422 89.2869 71.8592 89.5824 72.5901 89.8184L72.3401 91.4158L77.6786 92.0864L77.9287 90.4855C78.7112 90.4383 79.4911 90.329 80.2605 90.1594L80.834 91.6449L85.8806 89.5212L85.3088 88.0392C85.9707 87.6082 86.6054 87.1229 87.2061 86.5835L88.4476 87.554L91.8487 83.2042ZM84.0192 80.9476C81.0876 84.4667 75.9527 85.1854 72.3794 82.5765C68.4336 79.6956 67.8347 73.9819 71.0723 70.0956C74.0039 66.5765 79.1387 65.8578 82.7121 68.4667C86.6579 71.3485 87.2559 77.0613 84.0192 80.9476Z" fill="#227EE0"/>
<path d="M77.1524 87.5356C74.6265 87.5356 72.1242 86.7269 70.0504 85.105C64.9452 81.112 64.154 73.5649 68.2869 68.2814C70.0923 65.9732 72.6401 64.3724 75.4624 63.7726C78.2567 63.1789 81.1358 63.6012 83.5699 64.9608C83.6119 64.9844 83.6276 65.0377 83.604 65.0797C83.5804 65.1216 83.5271 65.1365 83.4851 65.1138C78.526 62.3431 72.0517 63.7516 68.425 68.389C64.3516 73.5973 65.1297 81.0342 70.1588 84.9669C74.3144 88.2167 80.2169 88.1512 84.5124 84.8069C84.55 84.7772 84.6051 84.7842 84.6348 84.8218C84.6646 84.8602 84.6576 84.9144 84.62 84.9442C82.4036 86.6709 79.7649 87.5356 77.1524 87.5356Z" fill="white"/>
<path d="M67.792 68.6949C66.999 69.1373 65.6718 67.5705 64.5063 65.96C63.6503 64.7771 62.7629 63.3677 63.7011 62.6639C64.7913 61.8455 66.025 63.4918 66.7376 64.6302C67.7946 66.3203 68.5675 68.263 67.792 68.6949Z" fill="#84524D"/>
<path d="M69.8274 67.9912C68.9871 68.4546 67.5436 66.7444 66.2715 64.9888C65.3369 63.7001 64.3655 62.1656 65.3561 61.4225C66.5076 60.5586 67.8523 62.3536 68.6322 63.5925C69.7906 65.4303 70.6483 67.5374 69.8274 67.9912Z" fill="#84524D"/>
<path d="M71.8435 66.5747C71.0068 67.108 69.6551 65.6654 68.4713 64.1616C67.6022 63.0573 66.7052 61.7266 67.6975 60.9135C68.8516 59.9683 70.1045 61.501 70.8249 62.5755C71.8934 64.1712 72.661 66.0536 71.8435 66.5747Z" fill="#84524D"/>
<path d="M73.1978 64.9415C72.508 65.3865 71.4422 64.2586 70.5145 63.0774C69.8334 62.2101 69.134 61.1618 69.9567 60.4877C70.9123 59.7043 71.8959 60.9074 72.4572 61.7546C73.2905 63.0127 73.8719 64.5061 73.1978 64.9415Z" fill="#84524D"/>
<path d="M72.5299 61.9539C72.5019 61.9539 72.474 61.94 72.4573 61.9146C71.8287 60.966 71.2246 60.423 70.7113 60.3452C70.4595 60.3076 70.2313 60.3758 70.0119 60.555C69.8143 60.7168 69.705 60.9048 69.6779 61.1286C69.6744 61.1601 69.6534 61.1872 69.6228 61.1994C69.5931 61.2108 69.559 61.2055 69.5345 61.1854C68.8569 60.6189 68.2737 60.5515 67.7509 60.98C67.472 61.2082 67.3408 61.4871 67.3487 61.8315C67.3496 61.8665 67.3295 61.8989 67.2971 61.9137C67.2648 61.9286 67.2272 61.9216 67.2018 61.898C67.0453 61.752 66.8914 61.6305 66.7446 61.5369C66.7043 61.5107 66.6921 61.4565 66.7183 61.4162C66.7446 61.376 66.7979 61.3638 66.839 61.39C66.9509 61.4617 67.0663 61.5474 67.1826 61.6471C67.2202 61.3332 67.3741 61.0639 67.6399 60.8462C68.1994 60.388 68.8351 60.4265 69.5328 60.9616C69.5896 60.7561 69.7129 60.5751 69.9 60.4213C70.1553 60.2114 70.4368 60.1292 70.7358 60.1738C71.3076 60.2604 71.9354 60.8138 72.6016 61.8193C72.6278 61.8595 72.6173 61.9137 72.5771 61.9408C72.5631 61.9487 72.5465 61.9539 72.5299 61.9539Z" fill="#363E44"/>
<path d="M67.347 66.2391C67.319 66.2391 67.291 66.226 67.2744 66.2006L64.9137 62.6955C64.8866 62.6553 64.8971 62.601 64.9373 62.5739C64.9776 62.5468 65.0318 62.5573 65.0589 62.5976L67.4195 66.1027C67.4466 66.1429 67.4361 66.1971 67.3959 66.2242C67.3802 66.2338 67.3636 66.2391 67.347 66.2391Z" fill="#363E44"/>
<path d="M69.435 65.2721C69.4061 65.2721 69.3781 65.2581 69.3615 65.2328L67.1067 61.7958C67.0804 61.7556 67.0918 61.7014 67.132 61.6752C67.1722 61.649 67.2264 61.6603 67.2527 61.7005L69.5084 65.1366C69.5346 65.1768 69.5233 65.231 69.483 65.2573C69.4682 65.2678 69.4516 65.2721 69.435 65.2721Z" fill="#363E44"/>
<path d="M71.9161 64.6382C71.8881 64.6382 71.861 64.6251 71.8435 64.5998L69.4829 61.1366C69.4558 61.0964 69.4663 61.0422 69.5056 61.0151C69.5458 60.988 69.6 60.9985 69.6271 61.0378L71.9878 64.501C72.0149 64.5412 72.0044 64.5954 71.965 64.6225C71.9502 64.6339 71.9327 64.6382 71.9161 64.6382Z" fill="#363E44"/>
<path d="M34.3055 91.3695C32.883 91.554 31.5802 90.5503 31.3957 89.1269L30.7986 84.5192C30.6141 83.0967 31.6178 81.794 33.0412 81.6095C34.4637 81.425 35.7665 82.4287 35.9509 83.8521L36.5481 88.4598C36.7326 89.8823 35.728 91.185 34.3055 91.3695Z" fill="#84524D"/>
<path d="M31.0461 75.7874C31.2638 75.6939 32.8918 73.9295 34.6605 74.9918C35.9763 75.7822 37.0159 78.0571 37.6139 80.5017C38.3186 83.3809 38.337 85.2003 37.7022 86.0152C36.6994 87.3013 32.2334 86.5564 30.0065 84.5551C28.3995 83.1098 27.791 80.7841 28.3348 78.677C28.8769 76.5752 30.9071 75.8469 31.0461 75.7874Z" fill="#84524D"/>
<path d="M31.9334 80.6425C31.9465 80.6574 31.9456 80.6775 31.9587 80.6924C31.9596 80.6933 31.9596 80.6933 31.9605 80.6941C32.0724 80.9477 32.1904 81.2152 32.2543 81.4845C32.2822 81.6043 32.2569 81.7005 32.2709 81.8159C32.2814 81.9007 32.291 81.982 32.298 82.0659C31.3939 81.9042 30.7155 81.3604 30.7155 81.3604C30.7155 81.3604 31.2173 80.9057 31.9334 80.6425Z" fill="white"/>
<mask id="mask1_4077_80901" style="mask-type:luminance" maskUnits="userSpaceOnUse" x="30" y="80" width="5" height="3">
<path d="M30.7163 81.3603C30.7163 81.3603 31.6999 82.1507 32.8794 82.1096C34.0579 82.0694 34.9856 81.2135 34.9856 81.2135C34.9856 81.2135 34.0011 80.4231 32.8225 80.4642C31.6431 80.5044 30.7163 81.3603 30.7163 81.3603Z" fill="white"/>
</mask>
<g mask="url(#mask1_4077_80901)">
<path d="M32.1601 81.8886C32.6427 82.5907 33.6036 82.7682 34.3057 82.2856C35.0078 81.8029 35.1852 80.8421 34.7026 80.14C34.22 79.4379 33.2591 79.2604 32.5571 79.743C31.855 80.2265 31.6766 81.1865 32.1601 81.8886Z" fill="#363E44"/>
</g>
<path d="M37.0106 79.3432C37.2073 79.6055 37.307 79.8398 37.3139 80.1528C36.6556 80.5716 35.9797 80.6826 35.9797 80.6826C35.9797 80.6826 35.9771 79.6571 36.5166 78.7976C36.7185 78.9296 36.8707 79.157 37.0106 79.3432Z" fill="white"/>
<mask id="mask2_4077_80901" style="mask-type:luminance" maskUnits="userSpaceOnUse" x="35" y="77" width="4" height="4">
<path d="M38.7251 77.4101C38.7251 77.4101 37.4801 77.6138 36.7212 78.5179C35.9632 79.4219 35.9798 80.6836 35.9798 80.6836C35.9798 80.6836 37.2248 80.4799 37.9837 79.5758C38.7417 78.6718 38.7251 77.4101 38.7251 77.4101Z" fill="white"/>
</mask>
<g mask="url(#mask2_4077_80901)">
<path d="M38.2599 77.2571C37.4153 77.147 36.6406 77.7424 36.5305 78.587C36.4203 79.4315 37.0157 80.2062 37.8603 80.3163C38.7049 80.4265 39.4795 79.8311 39.5897 78.9865C39.6999 78.1419 39.1044 77.3682 38.2599 77.2571Z" fill="#363E44"/>
</g>
<path d="M26.2058 82.1305C26.2058 82.1305 28.1451 84.4982 31.0539 85.7729C30.8397 84.8331 30.3973 82.1909 30.3973 82.1909L29.5247 80.5917C29.182 79.964 29.3403 79.1797 29.8998 78.7338L34.6613 74.9917C34.6613 74.9917 34.5591 74.9096 33.022 73.9906C32.1547 73.4722 30.1901 73.6811 28.9311 74.0431C22.5608 75.8731 26.2058 82.1305 26.2058 82.1305Z" fill="#363E44"/>
<path d="M23.0714 78.8558C25.2911 77.5743 26.8054 76.0418 26.4539 75.433C26.1024 74.8241 24.018 75.3695 21.7984 76.651C19.5788 77.9325 18.0644 79.465 18.4159 80.0739C18.7675 80.6827 20.8518 80.1374 23.0714 78.8558Z" fill="#363E44"/>
<path d="M23.6396 81.3533C21.7266 83.5243 19.6929 84.8576 19.0975 84.333C18.5021 83.8084 19.5697 81.6226 21.4835 79.4526C23.3974 77.2825 25.4302 75.9483 26.0256 76.4729C26.6202 76.9975 25.5526 79.1824 23.6396 81.3533Z" fill="#363E44"/>
<path d="M25.579 82.1639C24.4196 84.8148 22.8896 86.706 22.1622 86.3877C21.4347 86.0695 21.7853 83.6625 22.9447 81.0115C24.104 78.3606 25.6341 76.4695 26.3615 76.7877C27.0889 77.1068 26.7383 79.5138 25.579 82.1639Z" fill="#363E44"/>
<path d="M26.7761 75.5431C26.8011 75.1175 25.6079 74.7013 24.1111 74.6136C22.6144 74.5259 21.3808 74.7998 21.3558 75.2255C21.3309 75.6511 22.524 76.0673 24.0208 76.155C25.5176 76.2427 26.7512 75.9688 26.7761 75.5431Z" fill="#363E44"/>
<path d="M25.7992 80.6425C25.7616 80.6425 25.7275 80.618 25.7153 80.5804C25.3393 79.3581 25.3761 78.0248 25.8185 76.8244C25.8351 76.7789 25.8858 76.7562 25.9304 76.7728C25.9759 76.7894 25.9986 76.8401 25.982 76.8847C25.5527 78.0484 25.5177 79.3424 25.8823 80.5289C25.8963 80.5752 25.8709 80.6242 25.8246 80.6381C25.8167 80.6416 25.808 80.6425 25.7992 80.6425Z" fill="white"/>
<path d="M30.5685 82.2591C31.2164 82.9551 31.2645 83.964 30.6761 84.5114C30.0876 85.0587 29.0848 84.9389 28.4369 84.2421C27.7891 83.5461 27.741 82.5371 28.3294 81.9898C28.9187 81.4425 29.9207 81.5632 30.5685 82.2591Z" fill="#84524D"/>
<path d="M29.0928 83.9615C29.0745 83.9615 29.0561 83.9554 29.0404 83.944C28.9897 83.9055 28.9424 83.8618 28.8979 83.8155C28.5368 83.4273 28.514 82.8581 28.848 82.5469C28.9311 82.4699 29.0299 82.414 29.1409 82.3816C29.1873 82.3685 29.2362 82.3947 29.2493 82.4411C29.2633 82.4874 29.2362 82.5364 29.1899 82.5495C29.1051 82.574 29.0299 82.6168 28.9669 82.6754C28.7038 82.9202 28.73 83.3783 29.0264 83.6966C29.0631 83.7368 29.1042 83.7735 29.1462 83.8059C29.1846 83.8347 29.1916 83.8898 29.1628 83.9283C29.1453 83.9493 29.1191 83.9615 29.0928 83.9615Z" fill="#363E44"/>
<path d="M36.5945 82.1988C36.5866 82.1988 36.5787 82.1979 36.57 82.1953C36.5236 82.1821 36.4965 82.1332 36.5105 82.0868C36.5507 81.9487 36.5473 81.8342 36.5 81.7467C36.4519 81.6567 36.3671 81.6173 36.2491 81.564C36.1512 81.5194 36.041 81.4687 35.9195 81.376C35.7656 81.258 35.6371 81.1024 35.5374 80.9135C35.5147 80.8707 35.5313 80.8182 35.5741 80.7955C35.617 80.7727 35.6694 80.7894 35.6922 80.8322C35.7796 80.9983 35.8915 81.1347 36.0253 81.237C36.1311 81.3174 36.2316 81.3638 36.3217 81.4049C36.4537 81.4652 36.5779 81.5229 36.6539 81.6645C36.723 81.7931 36.7309 81.9522 36.6784 82.1358C36.6679 82.1734 36.6329 82.1988 36.5945 82.1988Z" fill="#363E44"/>
<path d="M35.9536 83.8688C35.9492 83.8688 35.944 83.8688 35.9396 83.8688C35.5392 83.8636 35.2812 83.6179 35.2122 83.5427C35.179 83.5069 35.1816 83.4518 35.2165 83.4194C35.2515 83.3862 35.3075 83.3888 35.3398 83.4238C35.3975 83.4859 35.6109 83.6887 35.9414 83.694C36.2404 83.6966 36.4423 83.5418 36.5167 83.4745C36.5525 83.4422 36.6076 83.4439 36.6399 83.4797C36.6723 83.5156 36.6697 83.5707 36.6347 83.603C36.5473 83.6835 36.3059 83.8688 35.9536 83.8688Z" fill="#363E44"/>
<path d="M35.784 86.7216C32.911 86.7216 31.8627 85.7817 31.8172 85.7397C31.7814 85.7065 31.7796 85.6514 31.8128 85.6165C31.8461 85.5806 31.9003 85.5789 31.9361 85.6112C31.9475 85.6217 33.1051 86.649 36.2718 86.538C36.3156 86.5354 36.3602 86.5738 36.3619 86.6219C36.3637 86.67 36.3261 86.7102 36.278 86.712C36.1083 86.7181 35.9431 86.7216 35.784 86.7216Z" fill="#363E44"/>
<path d="M102.363 119.316H104.844C105.066 120.526 105.383 121.702 105.786 122.837L103.638 124.077L107.837 131.349L109.989 130.106C110.779 131.031 111.64 131.893 112.565 132.682L111.323 134.835L118.594 139.033L119.834 136.886C120.97 137.289 122.146 137.605 123.355 137.827V140.309H131.752V137.827C132.961 137.605 134.138 137.288 135.273 136.886L136.513 139.033L143.784 134.835L142.542 132.682C143.466 131.893 144.328 131.031 145.118 130.106L147.27 131.349L151.469 124.076L149.321 122.836C149.724 121.701 150.041 120.525 150.263 119.315H152.744V110.919H150.263C150.041 109.709 149.724 108.533 149.321 107.397L151.469 106.157L147.27 98.8853L145.118 100.128C144.328 99.2027 143.467 98.3415 142.542 97.552L143.784 95.3994L136.513 91.2009L135.273 93.3482C134.137 92.9452 132.961 92.6287 131.752 92.4066V89.9253H123.355V92.4066C122.146 92.6287 120.969 92.9461 119.834 93.3482L118.594 91.2009L111.323 95.3994L112.565 97.552C111.641 98.3415 110.779 99.2027 109.989 100.128L107.837 98.8853L103.638 106.158L105.786 107.398C105.383 108.533 105.066 109.709 104.844 110.919H102.363V119.316ZM135.727 95.5192C140.984 97.5065 145.165 101.687 147.152 106.945C153.905 124.808 137.244 141.469 119.381 134.717C114.124 132.729 109.943 128.549 107.956 123.292C101.202 105.428 117.863 88.7668 135.727 95.5192Z" fill="#6AADE1"/>
<path d="M140.923 128.488C148.307 121.104 148.307 109.132 140.923 101.748C133.538 94.3633 121.566 94.3633 114.182 101.748C106.797 109.132 106.797 121.104 114.182 128.488C121.566 135.873 133.538 135.873 140.923 128.488Z" fill="#227EE0"/>
<path d="M110.475 114.044C112.151 107.505 119.704 103.498 127.689 102.801C134.388 102.217 139.944 104.016 142.788 107.438C143.627 109.437 144.091 111.631 144.091 113.934C144.091 123.218 136.565 130.744 127.281 130.744C118.036 130.744 110.535 123.277 110.475 114.044Z" fill="white"/>
<path d="M127.578 110.944L128.921 110.574C131.218 109.942 132.568 107.567 131.936 105.27L127.518 89.2148C126.886 86.9171 124.511 85.5672 122.214 86.1993L120.871 86.5691C118.573 87.2013 117.223 89.5759 117.855 91.8736L122.273 107.929C122.905 110.226 125.28 111.576 127.578 110.944Z" fill="#E2A18D"/>
<path d="M127.36 84.1498C127.073 83.94 124.296 81.9701 121.355 82.9231C119.167 83.6322 117.879 85.4447 116.179 88.8117C114.178 92.7767 113.535 95.4267 114.186 96.8292C115.214 99.0455 121.986 99.4687 125.913 97.2995C128.748 95.7336 130.422 92.5441 130.341 89.2847C130.26 86.0331 127.543 84.2836 127.36 84.1498Z" fill="#E2A18D"/>
<path d="M119.656 98.9425C118.396 98.9425 117.224 98.7869 116.3 98.5141C116.254 98.5001 116.227 98.452 116.241 98.4057C116.255 98.3594 116.304 98.3331 116.35 98.3471C118.801 99.0728 123.013 98.8988 125.816 97.3504C125.858 97.3268 125.911 97.3425 125.935 97.3845C125.959 97.4265 125.943 97.4798 125.901 97.5034C124.062 98.5176 121.739 98.9425 119.656 98.9425Z" fill="#363E44"/>
<path d="M123.15 90.7274C123.15 90.7274 122.139 91.6394 120.736 91.9795C120.442 92.0512 120.419 89.5314 120.731 89.5961C122.123 89.882 123.15 90.7274 123.15 90.7274Z" fill="white"/>
<path d="M116.402 90.8804C116.402 90.8804 117.942 92.1464 119.806 92.1044C120.132 92.0974 120.445 92.0494 120.742 91.9768C121.169 91.2144 121.144 90.3156 120.743 89.5978C120.428 89.5322 120.093 89.4946 119.747 89.5025C117.883 89.5453 116.402 90.8804 116.402 90.8804Z" fill="#363E44"/>
<path d="M116.947 94.2876C116.605 94.2876 116.27 94.1005 116.08 93.7849C116.056 93.7438 116.069 93.6896 116.11 93.6651C116.151 93.6406 116.205 93.6537 116.23 93.6948C116.423 94.0166 116.796 94.1783 117.137 94.0883C117.566 93.9755 117.696 93.5278 117.701 93.5086C117.715 93.4623 117.763 93.4352 117.809 93.4483C117.855 93.4614 117.882 93.5095 117.869 93.5558C117.863 93.5786 117.706 94.1189 117.181 94.257C117.104 94.278 117.026 94.2876 116.947 94.2876Z" fill="#363E44"/>
<path d="M115.823 90.2265C115.724 90.4188 115.551 90.6855 115.255 90.8927C114.898 91.1419 114.625 91.12 114.502 91.3386C114.42 91.4855 114.399 91.7513 114.728 92.2768L115.823 90.2265Z" fill="#E2A18D"/>
<path d="M114.728 92.3641C114.699 92.3641 114.67 92.3493 114.654 92.323C114.368 91.8675 114.293 91.5318 114.425 91.2957C114.509 91.1471 114.646 91.0911 114.804 91.0273C114.921 90.9792 115.055 90.9259 115.204 90.821C115.426 90.6662 115.607 90.4529 115.745 90.1871C115.767 90.1442 115.82 90.1276 115.863 90.1495C115.906 90.1713 115.922 90.2247 115.9 90.2675C115.75 90.5595 115.55 90.7939 115.305 90.9652C115.14 91.0806 114.99 91.141 114.87 91.1899C114.727 91.2485 114.633 91.2861 114.578 91.3823C114.458 91.5974 114.633 91.9628 114.802 92.2312C114.828 92.2723 114.815 92.3257 114.774 92.3519C114.76 92.3598 114.744 92.3641 114.728 92.3641Z" fill="#363E44"/>
<path d="M124.619 96.3457C124.092 96.3457 123.587 96.1989 123.171 95.9033C123.132 95.8754 123.123 95.8212 123.151 95.7818C123.179 95.7425 123.233 95.7329 123.273 95.7617C124.101 96.351 125.319 96.3012 126.304 95.6384C126.906 95.2327 127.339 94.6539 127.522 94.0087C127.704 93.3687 127.617 92.7401 127.28 92.2382C126.744 91.4426 125.663 91.1313 124.591 91.4636C124.545 91.4775 124.496 91.4522 124.482 91.4058C124.468 91.3595 124.493 91.3105 124.54 91.2966C125.687 90.9407 126.846 91.28 127.425 92.1403C127.792 92.6859 127.886 93.3661 127.691 94.0568C127.496 94.7414 127.038 95.3551 126.402 95.7836C125.846 96.1569 125.218 96.3457 124.619 96.3457Z" fill="#363E44"/>
<path d="M125.452 94.973C125.419 94.973 125.387 94.9537 125.373 94.9214C125.353 94.8777 125.373 94.8252 125.416 94.806C125.499 94.7692 125.579 94.7246 125.654 94.6739C125.951 94.4737 126.166 94.1878 126.256 93.8696C126.345 93.5566 126.303 93.2497 126.139 93.0057C126.056 92.8825 125.946 92.7819 125.814 92.7076C125.772 92.684 125.757 92.6307 125.781 92.5887C125.805 92.5467 125.858 92.5319 125.9 92.5555C126.056 92.6438 126.185 92.7627 126.283 92.9078C126.477 93.1955 126.527 93.5539 126.424 93.9177C126.322 94.2753 126.084 94.5961 125.751 94.8191C125.667 94.8759 125.579 94.9249 125.487 94.966C125.477 94.9703 125.464 94.973 125.452 94.973Z" fill="#363E44"/>
<path d="M119.837 82.716C122.058 82.02 123.727 82.4222 124.559 82.5184C123.814 82.2246 122.912 81.9326 121.871 81.7166C121.554 81.6511 121.244 81.5968 120.945 81.5523C121.302 81.4211 121.679 81.3109 122.077 81.2279C123.211 80.9927 124.467 80.8694 125.643 81.1964C127.706 81.7708 129.119 83.8395 129.618 84.4419C129.396 83.9365 129.094 83.3612 128.678 82.7667C128.454 82.4467 128.221 82.1564 127.986 81.8924C129.099 82.2989 130.063 82.8043 130.715 83.6244C131.005 83.9899 131.165 84.3606 131.344 84.8764C131.545 85.4526 131.587 86.1249 131.634 86.5796C131.669 86.4021 131.713 86.1415 131.744 85.825C131.756 85.6948 131.779 85.45 131.788 85.1614C132.02 85.5802 132.207 86.027 132.338 86.5044C133.298 89.9912 131.523 92.3177 129.548 93.2637C126.425 91.3638 123.732 88.9184 120.876 87.1514C121.67 87.2537 122.321 87.1514 122.689 87.0674C120.793 86.7046 119.742 86.3846 119.155 86.1914C118.235 85.888 117.479 85.6196 116.46 85.1789C116.773 84.7138 118.224 83.2213 119.837 82.716Z" fill="#363E44"/>
</svg>
